<?xml version="1.0" encoding="utf-8"?>
<svg width="160px" height="43px" viewBox="0 0 160 43" version="1.1" xmlns:xlink="http://www.w3.org/1999/xlink" xmlns="http://www.w3.org/2000/svg">
  <defs>
    <path d="M0 0L60 0L60 34L0 34L0 0Z" id="path_1" />
    <path d="M22.0026 3.47522L48.0222 18.5392Q48.1354 18.6047 48.244 18.6775Q48.3526 18.7502 48.4563 18.8299Q48.56 18.9096 48.6582 18.996Q48.7564 19.0823 48.8488 19.1748Q48.9412 19.2674 49.0273 19.3658Q49.1135 19.4641 49.193 19.5679Q49.2725 19.6717 49.3451 19.7805Q49.4177 19.8893 49.483 20.0026Q49.5483 20.1159 49.6061 20.2332Q49.6638 20.3505 49.7138 20.4713Q49.7638 20.5921 49.8058 20.716Q49.8478 20.8398 49.8816 20.9661Q49.9154 21.0925 49.9409 21.2207Q49.9664 21.349 49.9834 21.4786Q50.0005 21.6083 50.009 21.7388Q50.0175 21.8692 50.0175 22Q50.0175 22.1308 50.009 22.2613Q50.0005 22.3917 49.9834 22.5214Q49.9664 22.651 49.9409 22.7793Q49.9154 22.9075 49.8816 23.0339Q49.8478 23.1602 49.8058 23.284Q49.7638 23.4079 49.7138 23.5287Q49.6638 23.6495 49.6061 23.7668Q49.5483 23.8841 49.483 23.9974Q49.4177 24.1107 49.3451 24.2195Q49.2725 24.3283 49.193 24.4321Q49.1135 24.5359 49.0273 24.6343Q48.9412 24.7326 48.8488 24.8252Q48.7564 24.9177 48.6582 25.004Q48.56 25.0904 48.4563 25.1701Q48.3526 25.2498 48.244 25.3226Q48.1354 25.3953 48.0222 25.4608L22.0026 40.5248Q21.8893 40.5904 21.7719 40.6485Q21.6545 40.7066 21.5335 40.7568Q21.4125 40.8071 21.2885 40.8493Q21.1646 40.8916 21.0381 40.9256Q20.9116 40.9596 20.7831 40.9853Q20.6547 41.011 20.5248 41.0282Q20.395 41.0455 20.2643 41.0541Q20.1336 41.0628 20.0026 41.0629Q19.8716 41.0631 19.7409 41.0546Q19.6102 41.0462 19.4803 41.0292Q19.3504 41.0122 19.2219 40.9867Q19.0934 40.9613 18.9669 40.9275Q18.8403 40.8937 18.7163 40.8516Q18.5922 40.8096 18.4711 40.7596Q18.3501 40.7095 18.2326 40.6517Q18.1151 40.5938 18.0016 40.5284Q17.8881 40.463 17.7791 40.3902Q17.6702 40.3175 17.5662 40.2378Q17.4623 40.1582 17.3637 40.0718Q17.2652 39.9855 17.1726 39.8929Q17.0799 39.8004 16.9935 39.7019Q16.9071 39.6035 16.8273 39.4996Q16.7475 39.3957 16.6747 39.2868Q16.6019 39.1779 16.5364 39.0645Q16.4708 38.9511 16.4129 38.8336Q16.3549 38.7161 16.3048 38.5951Q16.2546 38.4741 16.2125 38.3501Q16.1703 38.2261 16.1364 38.0995Q16.1025 37.973 16.0769 37.8446Q16.0514 37.7161 16.0343 37.5862Q16.0171 37.4564 16.0086 37.3257Q16 37.1949 16 37.0639L16 6.93605Q16 6.80507 16.0086 6.67436Q16.0171 6.54365 16.0343 6.41378Q16.0514 6.28392 16.0769 6.15545Q16.1025 6.02698 16.1364 5.90046Q16.1703 5.77394 16.2125 5.64991Q16.2546 5.52588 16.3048 5.40488Q16.3549 5.28387 16.4129 5.1664Q16.4708 5.04894 16.5364 4.93552Q16.6019 4.8221 16.6747 4.71321Q16.7475 4.60432 16.8273 4.50043Q16.9071 4.39654 16.9935 4.2981Q17.0799 4.19965 17.1726 4.10707Q17.2652 4.01449 17.3637 3.92817Q17.4623 3.84185 17.5662 3.76216Q17.6702 3.68247 17.7791 3.60976Q17.8881 3.53705 18.0016 3.47162Q18.1151 3.4062 18.2326 3.34834Q18.3501 3.29048 18.4711 3.24043Q18.5922 3.19039 18.7163 3.14837Q18.8403 3.10635 18.9669 3.07254Q19.0934 3.03874 19.2219 3.01328Q19.3504 2.98783 19.4803 2.97084Q19.6102 2.95385 19.7409 2.94539Q19.8716 2.93694 20.0026 2.93706Q20.1336 2.93717 20.2643 2.94586Q20.395 2.95455 20.5248 2.97178Q20.6547 2.989 20.7831 3.01468Q20.9116 3.04037 21.0381 3.0744Q21.1646 3.10844 21.2885 3.15068Q21.4125 3.19292 21.5335 3.24318Q21.6545 3.29344 21.7719 3.35151Q21.8893 3.40959 22.0026 3.47521L22.0026 3.47522Z" id="path_2" />
    <rect width="160" height="43" id="artboard_1" />
    <clipPath id="clip_1">
      <use xlink:href="#artboard_1" clip-rule="evenodd" />
    </clipPath>
    <clipPath id="clip_2">
      <use xlink:href="#path_2" />
    </clipPath>
    <clipPath id="mask_1">
      <use xlink:href="#path_1" />
    </clipPath>
  </defs>
  <g id="Artboard" clip-path="url(#clip_1)">
    <use xlink:href="#artboard_1" stroke="none" fill="#FFFFFF" fill-opacity="0" />
    <g id="Flag" artboard="f8d12d10-4a7f-4a69-8332-07c24fee86e4">
      <path d="M0 0L60 0L60 34L0 34L0 0Z" id="Background" fill="#FFFFFF" fill-opacity="0" fill-rule="evenodd" stroke="none" />
      <g clip-path="url(#mask_1)">
        <path d="M0 2C10 -0.666667 20 -0.666667 30 2C40 4.66667 50 4.66667 60 2L60 32C50 34.6667 40 34.6667 30 32C20 29.3333 10 29.3333 0 32L0 2Z" id="Shape" fill="#00247D" stroke="none" />
        <path d="M-1.13687e-13 2C2.23607 1.40371 4.47213 0.940747 6.7082 0.6111C14.4722 3.34857 22.2362 7.69357 30.0002 13.6461C37.7642 11.8345 45.5282 8.4155 53.2922 3.3891C55.5283 3.05948 57.7643 2.59651 60.0004 2.0002L60.0004 5.3543C52.2364 11.3066 44.4724 15.6516 36.7084 18.3893C44.4724 23.4158 52.2364 26.8348 60.0004 28.6463L60.0004 32.0004C57.7643 32.5967 55.5283 33.0597 53.2922 33.3893C45.5282 30.6518 37.7642 26.3068 30.0002 20.3543C22.2362 22.1659 14.4722 25.5849 6.7082 30.6113C4.47213 30.9409 2.23607 31.4039 -1.43051e-06 32.0002L-1.43051e-06 28.6461C7.764 22.6938 15.528 18.3488 23.292 15.6111C15.528 10.5846 7.764 7.16564 -1.90735e-06 5.3541L-1.13687e-13 2Z" id="Shape" fill="#FFFFFF" stroke="none" />
        <path d="M0 2C10 4.33333 20 9.33333 30 17C28.5093 16.6025 27.0186 16.2642 25.5279 15.9852C17.0186 10.1379 8.50924 6.2216 -9.91821e-05 4.2362L0 2ZM30 14.764C38.5093 12.7785 47.0187 8.86213 55.528 3.015C57.0187 2.73599 58.5094 2.39773 60.0001 2.0002C50.0001 9.66687 40.0001 14.6669 30.0001 17.0002L30 14.764ZM60 32C50 29.6667 40 24.6667 30 17C31.4907 17.3975 32.9814 17.7358 34.4721 18.0148C42.9814 23.8621 51.4908 27.7784 60.0001 29.7638L60 32ZM30 19.236C21.4907 21.2215 12.9813 25.1379 4.472 30.985C2.98127 31.264 1.49057 31.6023 -9.9659e-05 31.9998C9.9999 24.3331 19.9999 19.3331 29.9999 16.9998L30 19.236Z" id="Shape" fill="#CF142B" fill-rule="evenodd" stroke="none" />
        <path d="M25 0.88889C26.6667 1.18518 28.3333 1.55555 30 1.99999C31.6667 2.44443 33.3333 2.8148 35 3.11109L35 13.1111C43.3333 14.5926 51.6667 14.2222 60 12L60 22C51.6667 24.2222 43.3333 24.5926 35 23.1111L35 33.1111C33.3333 32.8148 31.6667 32.4444 30 32C28.3333 31.5555 26.6667 31.1852 25 30.8889L25 20.8889C16.6667 19.4074 8.33333 19.7778 0 22L0 12C8.33333 9.77779 16.6667 9.40742 25 10.8889L25 0.88889Z" id="Shape" fill="#FFFFFF" stroke="none" />
        <path d="M27 1.28C28 1.49333 29 1.73333 30 2C31 2.26667 32 2.50667 33 2.72L33 14.72C42 16.64 51 16.4 60 14L60 20C51 22.4 42 22.64 33 20.72L33 32.72C32 32.5067 31 32.2667 30 32C29 31.7333 28 31.4933 27 31.28L27 19.28C18 17.36 9 17.6 0 20L0 14C9 11.6 18 11.36 27 13.28L27 1.28Z" id="Shape" fill="#CF142B" stroke="none" />
      </g>
    </g>
    <g id="Button-Play" artboard="f9ecb9f6-494a-4408-8330-2e47ab36e83e">
      <use stroke="none" fill="#64B5F6" xlink:href="#path_2" fill-rule="evenodd" />
      <g clip-path="url(#clip_2)">
        <use xlink:href="#path_2" fill="none" stroke="#4C91AD" stroke-width="4" />
      </g>
    </g>
    <path d="M153.564 31.3789C153.416 31.3789 153.146 31.207 152.756 30.8633C152.404 30.543 152.143 30.2578 151.971 30.0078C151.221 30.4141 150.561 30.7207 149.99 30.9277C149.42 31.1348 148.943 31.2383 148.561 31.2383C146.732 31.2383 145.4 30.7227 144.564 29.6914C143.775 28.7227 143.381 27.2383 143.381 25.2383C143.381 23.3477 144.031 21.7305 145.332 20.3867C146.633 19.043 148.186 18.3711 149.99 18.3711C150.67 18.3711 151.432 18.5469 152.275 18.8984C153.338 19.3359 153.869 19.8633 153.869 20.4805C153.869 20.6914 153.791 20.8789 153.635 21.043C153.557 21.3398 153.496 21.8281 153.453 22.5078C153.41 23.1875 153.385 24.0586 153.377 25.1211C153.369 26.0898 153.436 26.8555 153.576 27.418C153.654 27.7617 153.9 28.4492 154.314 29.4805C154.369 29.6211 154.459 29.8281 154.584 30.1016L154.654 30.3008C154.654 30.6133 154.545 30.8711 154.326 31.0742C154.107 31.2773 153.854 31.3789 153.564 31.3789L153.564 31.3789ZM151.127 23.2344C151.127 22.8984 151.148 22.5332 151.191 22.1387C151.234 21.7441 151.299 21.3242 151.385 20.8789C151.096 20.7305 150.848 20.6211 150.641 20.5508C150.434 20.4805 150.268 20.4453 150.143 20.4453C148.932 20.4453 147.887 20.9395 147.008 21.9277C146.129 22.916 145.689 24.0547 145.689 25.3438C145.689 26.625 145.916 27.5859 146.369 28.2266C146.822 28.8672 147.502 29.1875 148.408 29.1875C149.158 29.1875 149.795 29.0508 150.318 28.7773C150.6 28.6289 150.994 28.332 151.502 27.8867C151.252 25.8164 151.127 24.2656 151.127 23.2344L151.127 23.2344ZM141.213 31.0859C140.783 31.0859 140.451 30.8594 140.217 30.4063C139.811 29.6172 139.197 28.6836 138.377 27.6055L136.303 24.7813C135.85 25.1406 135.146 25.6445 134.193 26.293C134.107 27.5039 134.064 28.6836 134.064 29.832C134.064 30.1836 133.957 30.4688 133.742 30.6875C133.527 30.9063 133.252 31.0156 132.916 31.0156C132.127 31.0156 131.732 30.4844 131.732 29.4219C131.732 28.7734 131.777 27.8027 131.867 26.5098C131.957 25.2168 132.002 24.2461 132.002 23.5977C132.002 22.4102 132.02 21.0527 132.055 19.5254C132.09 17.998 132.107 16.6484 132.107 15.4766C132.107 15.125 132.09 14.7109 132.055 14.2344C132.02 13.7578 132.002 13.3438 132.002 12.9922C132.002 12.6406 132.109 12.3555 132.324 12.1367C132.539 11.918 132.814 11.8086 133.15 11.8086C133.486 11.8086 133.762 11.918 133.977 12.1367C134.191 12.3555 134.299 12.6406 134.299 12.9922C134.299 13.3516 134.318 13.7754 134.357 14.2637C134.396 14.752 134.416 15.1758 134.416 15.5352L134.334 19.3086C134.295 20.668 134.283 22.0273 134.299 23.3867C135.361 22.5742 136.385 21.6836 137.369 20.7148L139.947 18.0547C140.205 17.7891 140.482 17.6563 140.779 17.6563C141.084 17.6563 141.359 17.7773 141.605 18.0195C141.852 18.2617 141.975 18.543 141.975 18.8633C141.975 19.1289 141.861 19.3906 141.635 19.6484C140.674 20.7734 139.49 21.9805 138.084 23.2695L140.639 26.75C141.834 28.3828 142.432 29.4453 142.432 29.9375C142.432 30.25 142.309 30.5195 142.063 30.7461C141.816 30.9727 141.533 31.0859 141.213 31.0859L141.213 31.0859Z" id="ka" fill="#00247D" stroke="#00247D" stroke-width="2" artboard="0d76fddb-0293-4d0a-8f79-5c943bd95deb" />
    <path d="M123.225 31.2969C121.912 31.2969 120.783 30.8125 119.838 29.8438C118.783 28.7656 118.229 27.3164 118.174 25.4961C118.127 23.7305 118.572 22.1758 119.51 20.832C120.604 19.2461 122.127 18.4531 124.08 18.4531C125.643 18.4531 126.826 19.168 127.631 20.5977C128.271 21.7539 128.58 23.1445 128.557 24.7695C128.533 26.5039 128.08 27.9844 127.197 29.2109C126.197 30.6016 124.873 31.2969 123.225 31.2969L123.225 31.2969ZM123.928 20.832C122.779 20.8242 121.885 21.3711 121.244 22.4727C120.736 23.3555 120.482 24.3633 120.482 25.4961C120.482 26.6289 120.791 27.5117 121.408 28.1445C121.924 28.668 122.529 28.9297 123.225 28.9297C124.037 28.9297 124.736 28.6328 125.322 28.0391C125.986 27.3828 126.338 26.4961 126.377 25.3789C126.486 22.3555 125.67 20.8398 123.928 20.832L123.928 20.832ZM116.557 20.1523L112.502 28.918C111.502 31.0508 110.736 32.8359 110.205 34.2734L109.432 36.5469C109.229 37.1094 108.877 37.3906 108.377 37.3906C108.049 37.3906 107.766 37.2832 107.527 37.0684C107.289 36.8535 107.17 36.5859 107.17 36.2656C107.17 35.4844 108.014 33.2227 109.701 29.4805L105.506 21.4063L104.979 20.5508C104.768 20.1914 104.662 19.8906 104.662 19.6484C104.662 19.3281 104.785 19.0469 105.031 18.8047C105.277 18.5625 105.553 18.4414 105.857 18.4414C106.217 18.4414 106.494 18.5781 106.689 18.8516C108.018 20.6953 109.443 23.3203 110.967 26.7266L112.701 22.6836C113.326 21.2852 113.928 20.082 114.506 19.0742C114.756 18.6367 115.084 18.418 115.49 18.418C115.811 18.418 116.094 18.5313 116.34 18.7578C116.586 18.9844 116.709 19.2539 116.709 19.5664C116.709 19.7383 116.658 19.9336 116.557 20.1523L116.557 20.1523ZM98.4863 31.0156C97.7051 31.0156 96.8457 30.8906 95.9082 30.6406L95.8848 36.2422C95.8848 36.5859 95.7773 36.8672 95.5625 37.0859C95.3477 37.3047 95.0723 37.4141 94.7363 37.4141C94.4004 37.4141 94.125 37.3047 93.9102 37.0859C93.6953 36.8672 93.5879 36.5859 93.5879 36.2422L93.623 31.5547L93.623 26.8789C93.5996 25.168 93.541 23.6094 93.4473 22.2031L93.2715 19.8242C93.2715 19.2695 93.373 18.8008 93.5762 18.418C93.8105 17.957 94.1504 17.7266 94.5957 17.7266C94.9004 17.7266 95.1563 17.834 95.3633 18.0488C95.5703 18.2637 95.6738 18.5273 95.6738 18.8398C95.6738 18.9102 95.6621 19.0391 95.6387 19.2266C95.5996 19.4688 95.5723 19.6914 95.5566 19.8945C96.2285 19.4336 96.877 19.0879 97.502 18.8574C98.127 18.627 98.7246 18.5117 99.2949 18.5117C100.896 18.5117 102.068 19.2227 102.811 20.6445C103.396 21.7695 103.689 23.2578 103.689 25.1094C103.689 26.7969 103.236 28.1875 102.33 29.2813C101.369 30.4375 100.088 31.0156 98.4863 31.0156L98.4863 31.0156ZM99.2949 20.8555C98.5762 20.8555 97.9277 21.0156 97.3496 21.3359C96.9355 21.5625 96.4121 21.9766 95.7793 22.5781C95.8809 24.3516 95.9316 26.2148 95.9316 28.168C96.7832 28.4961 97.6348 28.6602 98.4863 28.6602C99.4629 28.6602 100.209 28.2969 100.725 27.5703C101.17 26.9375 101.393 26.1172 101.393 25.1094C101.393 23.6875 101.219 22.623 100.871 21.916C100.523 21.209 99.998 20.8555 99.2949 20.8555L99.2949 20.8555Z" id="pyo" fill="#CF142B" stroke="#CF142B" stroke-width="2" artboard="1b015d04-7ded-4de6-bd8a-4915baa1eb50" />
    <path d="M90.377 31.3789C90.2285 31.3789 89.959 31.207 89.5684 30.8633C89.2168 30.543 88.9551 30.2578 88.7832 30.0078C88.0332 30.4141 87.373 30.7207 86.8027 30.9277C86.2324 31.1348 85.7559 31.2383 85.373 31.2383C83.5449 31.2383 82.2129 30.7227 81.377 29.6914C80.5879 28.7227 80.1934 27.2383 80.1934 25.2383C80.1934 23.3477 80.8438 21.7305 82.1445 20.3867C83.4453 19.043 84.998 18.3711 86.8027 18.3711C87.4824 18.3711 88.2441 18.5469 89.0879 18.8984C90.1504 19.3359 90.6816 19.8633 90.6816 20.4805C90.6816 20.6914 90.6035 20.8789 90.4473 21.043C90.3691 21.3398 90.3086 21.8281 90.2656 22.5078C90.2227 23.1875 90.1973 24.0586 90.1895 25.1211C90.1816 26.0898 90.248 26.8555 90.3887 27.418C90.4668 27.7617 90.7129 28.4492 91.127 29.4805C91.1816 29.6211 91.2715 29.8281 91.3965 30.1016L91.4668 30.3008C91.4668 30.6133 91.3574 30.8711 91.1387 31.0742C90.9199 31.2773 90.666 31.3789 90.377 31.3789L90.377 31.3789ZM87.9395 23.2344C87.9395 22.8984 87.9609 22.5332 88.0039 22.1387C88.0469 21.7441 88.1113 21.3242 88.1973 20.8789C87.9082 20.7305 87.6602 20.6211 87.4531 20.5508C87.2461 20.4805 87.0801 20.4453 86.9551 20.4453C85.7441 20.4453 84.6992 20.9395 83.8203 21.9277C82.9414 22.916 82.502 24.0547 82.502 25.3438C82.502 26.625 82.7285 27.5859 83.1816 28.2266C83.6348 28.8672 84.3145 29.1875 85.2207 29.1875C85.9707 29.1875 86.6074 29.0508 87.1309 28.7773C87.4121 28.6289 87.8066 28.332 88.3145 27.8867C88.0645 25.8164 87.9395 24.2656 87.9395 23.2344L87.9395 23.2344ZM78.4473 31.0859C77.2598 31.0859 75.5684 30.043 73.373 27.957L69.8691 24.4297L69.8691 24.5938L69.8574 30.7344C69.8574 31.5078 69.5176 31.8945 68.8379 31.8945C68.3926 31.8945 68.0371 31.6992 67.7715 31.3086C67.5527 30.9883 67.4434 30.6406 67.4434 30.2656C67.4434 28.4375 67.498 25.7031 67.6074 22.0625C67.7168 18.4219 67.7715 15.6914 67.7715 13.8711C67.7715 13.5352 67.8828 13.25 68.1055 13.0156C68.3281 12.7813 68.6035 12.6641 68.9316 12.6641C69.2676 12.6641 69.5469 12.7813 69.7695 13.0156C69.9922 13.25 70.1035 13.5352 70.1035 13.8711C70.1035 14.6289 70.0566 15.8086 69.9629 17.4102C69.8691 18.957 69.8262 20.1406 69.834 20.9609C70.8809 19.9688 72.0645 18.7227 73.3848 17.2227L76.748 13.3203C77.0137 13.0156 77.3105 12.8633 77.6387 12.8633C77.9512 12.8633 78.2285 12.9805 78.4707 13.2148C78.7129 13.4492 78.834 13.7344 78.834 14.0703C78.834 14.5859 77.8262 15.9609 75.8105 18.1953C74.4199 19.7188 72.9824 21.2109 71.498 22.6719C72.4355 23.6563 73.9043 25.0703 75.9043 26.9141L77.1348 27.9453C77.5801 28.2891 78.0605 28.5469 78.5762 28.7188C79.1934 28.9219 79.502 29.3086 79.502 29.8789C79.502 30.1445 79.4199 30.3984 79.2559 30.6406C79.0527 30.9375 78.7832 31.0859 78.4473 31.0859L78.4473 31.0859Z" id="Ka" fill="#00247D" stroke="#00247D" stroke-width="2" artboard="a74a3831-1457-492f-b349-1a34fe78a9b5" />
  </g>
</svg>